Coordinates
version=1
nRows=7
nColumns=33
inDegrees=yes

Units are S.I. units (second, meters, Newtons, ...)
Angles are in degrees.

endheader
time	ground_thorax_rot_x	ground_thorax_rot_y	ground_thorax_rot_z	ground_thorax_tx	ground_thorax_ty	ground_thorax_tz	clav_prot_r	clav_elev_r	scapula_abduction_r	scapula_elevation_r	scapula_upward_rot_r	scapula_winging_r	shoulder_elv_r	plane_of_elev_r	axial_rot_r	elbow_flexion_r	pro_sup_r	wrist_flex_r	wrist_dev_r	clav_prot_l	clav_elev_l	scapula_abduction_l	scapula_elevation_l	scapula_upward_rot_l	scapula_winging_l	shoulder_elv_l	plane_of_elev_l	axial_rot_l	elbow_flexion_l	pro_sup_l	wrist_flex_l	wrist_dev_l
      4.99000000	     29.24846631	     26.62835837	     38.76817830	    -96.52340340	    856.97367604	    -42.61899960	     12.87632032	     34.01560898	     28.85510800	     45.00000000	    -45.00000000	   2429.97747314	    793.96639472	     22.01445928	   -162.16688893	   3598.84098285	    159.21311671	     15.93204263	     15.10069236	     -5.26039169	    -45.00000000	    -40.96887776	     45.00000000	    -45.00000000	   2625.29779678	  -3880.48064633	     25.87708738	     28.41766223	    349.62796044	     39.06992763	     14.01990890	    -22.05207252
      5.00000000	     28.96123620	     26.90544282	     39.26998938	    -94.12720342	    856.38349549	    -42.44498995	     12.40323625	     33.74600591	     28.88318194	     45.00000000	    -45.00000000	   2430.32956125	    794.04490483	     21.79384167	   -162.70016798	   3598.77010462	    159.05308581	     15.75453020	     15.31023624	     -4.94346100	    -45.00000000	    -41.19194392	     45.00000000	    -45.00000000	   2625.22421028	  -3880.60771011	     25.90175122	     29.09126382	    349.86503326	     39.11898998	     14.12779643	    -21.90647200
      5.01000000	     28.93596994	     27.01513658	     39.45962850	    -91.60922686	    855.69671980	    -42.27869452	     12.85731968	     33.97820925	     29.06463018	     45.00000000	    -45.00000000	   2430.26929230	    793.86688157	     22.05032480	   -163.02527169	   3598.77428524	    158.90637102	     15.64404995	     15.34123043	     -5.31188736	    -45.00000000	    -40.94492141	     45.00000000	    -45.00000000	   2624.95544967	  -3880.57417501	     26.16733240	     29.83072195	    349.73562451	     39.31384602	     14.23434634	    -21.77161325
      5.02000000	     28.84035625	     27.13946793	     39.76228687	    -88.97256271	    854.91213923	    -42.11776472	     12.88993796	     34.06122728	     29.19106416	     45.00000000	    -45.00000000	   2430.35244731	    793.75121456	     22.21736917	   -163.51405893	   3598.76235072	    158.77625778	     15.49977248	     15.41416164	     -5.35570437	    -45.00000000	    -40.85648312	     45.00000000	    -45.00000000	   2624.79954257	  -3880.61313753	     26.36501850	     30.72014455	    349.75330746	     39.47516108	     14.33662561	    -21.61588604
      5.03000000	     28.69035723	     27.35086048	     40.14001422	    -86.23355572	    854.03313158	    -41.96041142	     12.89664025	     34.09557784	     29.24857818	     45.00000000	    -45.00000000	   2430.49724266	    793.67018226	     22.28041573	   -164.01808256	   3598.74306823	    158.69732757	     15.34278785	     15.49733181	     -5.42631076	    -45.00000000	    -40.82821312	     45.00000000	    -45.00000000	   2624.61276445	  -3880.65900300	     26.50659176	     31.47491328	    349.74881391	     39.68359838	     14.44961203	    -21.42372554
      5.04000000	     28.57768113	     27.52289752	     40.46340681	    -83.38728037	    853.05766354	    -41.80452987	     12.87532133	     34.10816275	     29.41823491	     45.00000000	    -45.00000000	   2430.62618024	    793.56495979	     22.35693509	   -164.53963280	   3598.75343565	    158.67518306	     15.16142373	     15.60442704	     -5.45157207	    -45.00000000	    -40.77399912	     45.00000000	    -45.00000000	   2624.43194517	  -3880.71917338	     26.68290951	     32.25506447	    349.79537660	     39.89607177	     14.54841083	    -21.23945053
      5.05000000	     28.36817055	     27.76606654	     40.91781176	    -80.44416826	    851.98852474	    -41.65001168	     12.82827512	     34.07232993	     29.43688521	     45.00000000	    -45.00000000	   2430.85371737	    793.52841820	     22.38563068	   -165.03584734	   3598.72958590	    158.72273813	     14.98870620	     15.70524528	     -5.47459084	    -45.00000000	    -40.75475723	     45.00000000	    -45.00000000	   2624.25106745	  -3880.76644203	     26.80061312	     32.95564966	    349.86576993	     40.13231793	     14.63489183	    -21.02327422
